<?xml version="1.0" encoding="utf-8"?>
<!-- Generator: Adobe Illustrator 16.0.0, SVG Export Plug-In . SVG Version: 6.00 Build 0)  -->
<!DOCTYPE svg PUBLIC "-//W3C//DTD SVG 1.1//EN" "http://www.w3.org/Graphics/SVG/1.1/DTD/svg11.dtd">
<svg version="1.1" id="Layer_1" xmlns="http://www.w3.org/2000/svg" xmlns:xlink="http://www.w3.org/1999/xlink" x="0px" y="0px"
	 width="16px" height="16px" viewBox="0 0 16 16" enable-background="new 0 0 16 16" xml:space="preserve">
<g>
	<path fill="#2A52BE" d="M9.436,1.599c0.018-0.295,0.05-0.452,0.097-0.47l0.027-0.01c0.055-0.021,0.188-0.005,0.4,0.047
		c0.213,0.053,0.339,0.13,0.378,0.232c0.055,0.143,0.009,1.423-0.138,3.842C10.055,7.658,9.961,9.019,9.92,9.32
		C9.878,9.623,9.848,9.826,9.829,9.93c-0.02,0.104-0.053,0.223-0.102,0.357c-0.083,0.254-0.241,0.426-0.475,0.515
		c-0.095,0.036-0.175,0.08-0.238,0.132c-0.063,0.051-0.104,0.08-0.117,0.086c-0.117,0.045-0.187,0.039-0.207-0.016
		c-0.004-0.011-0.006-0.062-0.005-0.152c0.001-0.09,0.079-1.135,0.234-3.134C8.051,8.012,7.287,8.274,6.631,8.504
		c-0.324,1.023-0.576,2.06-0.756,3.111c-0.016,0.145-0.041,0.252-0.077,0.322s-0.102,0.123-0.196,0.16
		c-0.095,0.035-0.215,0.025-0.362-0.029c-0.146-0.055-0.243-0.145-0.292-0.273c-0.14-0.365,0.032-1.325,0.516-2.882
		C5.021,9.082,4.746,9.199,4.636,9.268c-0.11,0.066-0.182,0.106-0.215,0.119C4.323,9.424,4.242,9.359,4.179,9.193
		S4.157,8.845,4.304,8.644c0.147-0.2,0.385-0.363,0.714-0.488c0.025-0.01,0.07-0.029,0.134-0.058C5.373,8,5.602,7.902,5.837,7.804
		C6.275,6.567,6.775,5.382,7.338,4.25C7.901,3.12,8.439,2.272,8.951,1.708c0.082-0.09,0.154-0.146,0.215-0.167
		S9.317,1.54,9.436,1.599z M9.348,2.517c-0.945,1.52-1.724,3.132-2.335,4.838C7.664,7.123,8.328,6.9,9.004,6.688
		C9.134,5.037,9.248,3.646,9.348,2.517z"/>
</g>
<polyline fill="#2A52BE" stroke="#2A5EBE" stroke-width="0.25" stroke-miterlimit="10" points="2.12,13.63 1.357,15.639 
	15.188,9.438 "/>
</svg>
