<?xml version="1.0" encoding="utf-8"?>
<!-- Generator: Adobe Illustrator 16.0.0, SVG Export Plug-In . SVG Version: 6.00 Build 0)  -->
<!DOCTYPE svg PUBLIC "-//W3C//DTD SVG 1.1//EN" "http://www.w3.org/Graphics/SVG/1.1/DTD/svg11.dtd">
<svg version="1.1" xmlns="http://www.w3.org/2000/svg" xmlns:xlink="http://www.w3.org/1999/xlink" x="0px" y="0px"
	 width="331.595px" height="168.216px" viewBox="0 0 331.595 168.216" enable-background="new 0 0 331.595 168.216"
	 xml:space="preserve">
<g id="Layer_1">
	<g>
		<path fill="#87CEFA" stroke="#87CEFA" d="M75.563,42.291c0.772-2.5,1.395-3.787,1.866-3.858l0.272-0.041
			c0.543-0.082,1.73,0.292,3.562,1.123c1.83,0.833,2.817,1.72,2.959,2.666c0.198,1.318-2.907,12.225-9.313,32.717
			C68.5,95.391,64.791,106.899,63.78,109.418c-1.011,2.52-1.712,4.207-2.103,5.06c-0.391,0.854-0.949,1.82-1.677,2.898
			c-1.29,2.025-3.095,3.213-5.415,3.562c-0.943,0.142-1.76,0.377-2.452,0.707c-0.693,0.328-1.111,0.504-1.255,0.526
			c-1.161,0.174-1.779,0.008-1.855-0.498c-0.015-0.103,0.076-0.54,0.275-1.313c0.198-0.773,3.106-9.6,8.723-26.484
			c-8.566,0.979-16.089,1.869-22.567,2.671c-5.106,8.2-9.582,16.651-13.426,25.351c-0.449,1.209-0.91,2.081-1.386,2.62
			c-0.475,0.538-1.185,0.877-2.127,1.02c-0.943,0.142-2.025-0.154-3.248-0.886c-1.223-0.73-1.922-1.688-2.101-2.873
			c-0.508-3.379,3.08-11.315,10.765-23.81c-4.387,0.66-7.155,1.181-8.302,1.561c-1.148,0.381-1.885,0.594-2.211,0.644
			c-0.979,0.147-1.583-0.547-1.815-2.085c-0.231-1.537,0.535-3.036,2.299-4.494c1.764-1.459,4.278-2.434,7.541-2.925
			c0.253-0.038,0.704-0.123,1.352-0.254c2.232-0.439,4.521-0.87,6.869-1.292c6.602-9.843,13.659-19.114,21.175-27.815
			c7.514-8.7,14.203-15.012,20.063-18.937c0.943-0.625,1.716-0.974,2.317-1.048C73.821,41.25,74.601,41.573,75.563,42.291z
			 M72.832,50.012c-11.825,11.354-22.317,23.805-31.475,37.35c6.438-0.831,12.965-1.555,19.584-2.17
			C65.59,71.253,69.554,59.528,72.832,50.012z"/>
		<path fill="#87CEFA" stroke="#87CEFA" d="M112.959,35.418c-6.038,11.866-11.802,24.193-17.293,36.978
			c1.545-1.062,3.333-1.928,5.366-2.596c2.031-0.668,3.473-1.066,4.325-1.194s1.59-0.214,2.214-0.256
			c0.624-0.042,1.44,0.026,2.449,0.202c1.009,0.178,1.901,0.5,2.677,0.971c1.876,1.136,3.005,2.969,3.387,5.504
			c0.382,2.535,0.066,5.426-0.947,8.671c-1.014,3.247-2.551,6.58-4.613,10.001c-2.063,3.421-4.392,6.667-6.988,9.736
			c-2.597,3.07-5.493,5.692-8.688,7.866c-3.195,2.174-6.279,3.485-9.252,3.932c-1.378,0.208-3.088-0.382-5.132-1.767
			s-3.27-3.431-3.676-6.135c-0.407-2.703,0.213-7.083,1.86-13.138c1.647-6.054,3.814-12.283,6.503-18.685
			c2.688-6.4,5.472-12.671,8.349-18.806c2.877-6.137,5.354-11.175,7.43-15.118c2.077-3.941,3.364-6.227,3.863-6.854
			c0.498-0.627,1.489-1.244,2.976-1.849c1.484-0.602,2.79-0.98,3.917-1.134c1.126-0.151,1.761,0.246,1.903,1.192
			C113.679,33.548,113.469,34.375,112.959,35.418z M105.6,86.299c1.12-2.657,1.53-4.982,1.23-6.977
			c-0.3-1.994-1.13-2.888-2.489-2.684s-3.362,1.067-6.006,2.589c-2.645,1.521-4.167,2.312-4.565,2.372
			c-0.399,0.06-0.971-0.166-1.715-0.676c-5.284,12.927-7.68,21.032-7.187,24.309c0.229,1.521,0.869,2.203,1.92,2.044
			c2.502-0.376,5.815-2.873,9.941-7.485C100.855,95.18,103.813,90.682,105.6,86.299z"/>
		<path fill="#87CEFA" stroke="#87CEFA" d="M151.696,64.067c1.088-0.164,2.271,0.125,3.551,0.865c1.28,0.742,2.061,2.05,2.343,3.926
			c0.282,1.875-0.059,4.415-1.021,7.62c-0.965,3.203-2.447,6.537-4.446,10.001c-2.001,3.463-4.272,6.778-6.818,9.943
			c-2.546,3.167-5.399,5.877-8.563,8.133c-3.165,2.256-6.144,3.595-8.935,4.015c-2.792,0.42-5.154-0.064-7.086-1.449
			c-1.933-1.385-3.119-3.54-3.559-6.463c-0.44-2.923-0.157-6.276,0.85-10.057c1.006-3.781,2.52-7.214,4.54-10.302
			c2.019-3.085,4.281-5.923,6.783-8.512c5.244-5.317,10.095-8.311,14.555-8.982c1.993-0.3,3.566-0.071,4.72,0.689
			c0.407,0.25,0.63,0.494,0.666,0.729l0.045,0.305C149.816,64.385,150.609,64.23,151.696,64.067z M147.219,71.637l-0.381,0.057
			c-1.27,0.191-2.033-0.576-2.293-2.299c-2.524,1.21-5.085,3.046-7.68,5.511c-2.596,2.465-4.826,5.255-6.693,8.37
			c-3.807,6.243-5.458,11.278-4.957,15.108c0.285,1.893,1.17,2.727,2.658,2.503c1.486-0.224,3.561-1.47,6.223-3.737
			c2.661-2.268,5.18-5.307,7.554-9.121c2.373-3.813,4.089-7.071,5.147-9.771c1.059-2.7,1.521-4.497,1.385-5.393
			C148.048,71.97,147.727,71.561,147.219,71.637z"/>
		<path fill="#87CEFA" stroke="#87CEFA" d="M205.041,79.266c0.688-0.104,1.178,0.324,1.471,1.282
			c0.293,0.959,0.518,1.961,0.676,3.009s0.158,1.791,0.002,2.229c-0.768,2.052-2.723,4.705-5.865,7.959
			c-3.145,3.256-6.311,5.125-9.5,5.604c-1.959,0.295-3.855,0.017-5.688-0.83c-1.834-0.847-2.955-2.639-3.367-5.378
			c-0.412-2.736-0.037-5.541,1.125-8.413c-7.411,11.866-13.67,18.182-18.783,18.952c-2.031,0.306-3.773-0.125-5.228-1.288
			c-1.454-1.163-2.289-2.463-2.506-3.9c-0.216-1.436-0.222-2.956-0.019-4.559c0.204-1.604,0.459-3.051,0.765-4.342
			c0.307-1.29,0.806-2.901,1.497-4.839c0.69-1.936,1.211-3.344,1.561-4.227c0.349-0.881,0.917-2.22,1.703-4.016
			c0.787-1.794,1.814-4.205,3.084-7.23c1.269-3.024,2.354-5.288,3.26-6.791c0.905-1.501,1.882-2.339,2.931-2.515
			c1.049-0.174,2.033,0.083,2.953,0.775c0.919,0.69,1.418,1.291,1.494,1.796c0.077,0.508-0.796,2.972-2.614,7.393
			c-5.357,13.18-7.886,20.768-7.586,22.761c0.076,0.508,0.313,0.731,0.713,0.671c1.74-0.262,5.543-4.429,11.411-12.501
			c5.866-8.072,9.194-13.179,9.985-15.32c0.791-2.141,1.6-3.965,2.43-5.473c0.83-1.507,1.475-2.451,1.938-2.833
			c1.416-1.18,3.352-1.99,5.809-2.429c0.398-0.06,0.709-0.09,0.932-0.089c0.223,0.002,0.52,0.251,0.891,0.748
			c0.371,0.498,0.58,0.897,0.627,1.202c-0.186,0.996-1.246,3.732-3.188,8.204c-1.941,4.475-3.016,7.004-3.223,7.588
			c-3.039,8.892-4.369,14.588-3.992,17.089c0.215,1.42,0.9,2.042,2.061,1.867c2.063-0.586,4.363-2.541,6.904-5.861
			c0.93-1.21,1.848-2.438,2.756-3.682c0.906-1.242,1.473-1.974,1.699-2.199C204.382,79.461,204.677,79.321,205.041,79.266z"/>
		<path fill="#87CEFA" stroke="#87CEFA" d="M233.011,24.558l2.307,0.171c0.326-0.049,0.639,0.059,0.939,0.325
			c0.299,0.266,0.469,0.534,0.51,0.805s-0.23,1.055-0.814,2.352c-0.582,1.298-1.277,2.776-2.084,4.436
			c-0.807,1.661-1.238,2.563-1.289,2.709c2.797-0.628,4.785-1.033,5.963-1.21s1.998-0.223,2.455-0.136s1.02,0.435,1.686,1.042
			c0.666,0.609,1.262,1.055,1.787,1.339c0.523,0.284,0.84,0.781,0.947,1.49c0.107,0.711-0.266,1.38-1.115,2.009
			c-0.852,0.629-1.795,1.073-2.832,1.333c-8.293,2.044-12.873,3.148-13.738,3.312c-2.307,4.633-5.43,11.784-9.369,21.449
			c-3.939,9.667-5.904,15.639-5.896,17.919c0.008,1.036,0.061,1.876,0.158,2.518c0.197,1.317,1.039,1.865,2.525,1.641
			c1.486-0.224,3.057-1.004,4.709-2.341c1.652-1.338,3.146-2.746,4.482-4.227c3.551-3.99,5.471-6.008,5.762-6.052
			c0.941-0.142,1.643,1.309,2.102,4.351c0.248,1.656-0.344,3.266-1.775,4.83c-3.221,3.491-5.969,6.168-8.246,8.032
			c-2.279,1.864-4.668,2.983-7.17,3.36c-0.545,0.082-1.061,0.107-1.545,0.078c-2.979-0.071-5.256-0.739-6.838-2.005
			c-1.58-1.265-2.551-3.149-2.908-5.653c-0.359-2.504-0.018-5.657,1.023-9.461c1.041-3.803,2.455-7.896,4.242-12.278
			c2.928-7.146,5.918-13.887,8.969-20.222l-2.027,0.564c-4.141,1.072-6.555,1.66-7.244,1.763l-0.488,0.074
			c-1.053,0.158-2.096,0.119-3.135-0.124c-1.035-0.24-1.598-0.649-1.686-1.224c-0.086-0.574,0.094-1.171,0.537-1.792
			c0.445-0.619,0.697-1.091,0.762-1.41c0.141-0.783,0.969-1.754,2.48-2.916c1.514-1.16,2.682-1.828,3.508-2.005
			c0.826-0.176,1.627-0.339,2.402-0.49c0.773-0.151,1.639-0.316,2.594-0.495c0.955-0.178,1.686-0.321,2.188-0.432l4.865-0.94
			c2.404-4.717,4.086-7.771,5.045-9.159s1.52-2.154,1.684-2.301c0.162-0.146,0.518-0.259,1.061-0.341L233.011,24.558z"/>
		<path fill="#87CEFA" stroke="#87CEFA" d="M242.978,61.58c7.193-10.345,13.799-15.972,19.816-16.877
			c1.486-0.224,2.773,0.006,3.859,0.69c1.084,0.684,1.727,1.683,1.926,3.001c0.197,1.317-0.477,3.675-2.023,7.071
			c-1.547,3.395-3.012,6.286-4.395,8.672c-0.744,1.218-1.688,1.913-2.83,2.084c-1.141,0.172-2.088-0.082-2.84-0.765
			c-0.752-0.682-1.205-1.546-1.363-2.594c-0.352-2.333,0.594-5.171,2.834-8.515l-0.125-0.086c-1.18,0.283-3.813,2.926-7.898,7.93
			c-4.086,5.005-7.531,9.456-10.338,13.35c-2.807,3.896-5.783,8.571-8.93,14.022c-0.906,1.622-1.748,2.491-2.527,2.608
			c-0.779,0.117-1.848,0.045-3.203-0.218c-1.355-0.261-2.186-0.475-2.486-0.636c-0.303-0.162-0.49-0.479-0.561-0.953
			c-0.072-0.472-0.01-1.043,0.188-1.713c0.195-0.668,0.596-1.636,1.203-2.903c0.607-1.266,1.504-3.302,2.695-6.109
			c1.191-2.805,3.061-7.062,5.613-12.769c2.553-5.706,4.074-9.15,4.564-10.33c1.041-2.438,1.922-4.23,2.639-5.375
			c1.342-2.172,3.951-3.551,7.832-4.135c0.869-0.131,1.381,0.311,1.533,1.326c0.24,1.588-0.887,4.817-3.381,9.685L242.978,61.58z"/>
		<path fill="#87CEFA" stroke="#87CEFA" d="M293.115,70.625c0.152,1.014,0.152,1.758,0.002,2.229
			c-1.27,3.647-3.686,6.803-7.252,9.466c-3.566,2.662-6.783,4.208-9.646,4.639c-2.865,0.431-5.465-0.093-7.801-1.573
			c-2.336-1.481-3.645-3.151-3.924-5.009s0.311-4.713,1.77-8.562c1.461-3.849,2.961-7.426,4.502-10.735s2.295-5.09,2.256-5.343
			c-0.039-0.254-0.484-0.696-1.34-1.329c-0.855-0.63-1.309-1.125-1.363-1.479c-0.053-0.355,0.559-1.397,1.838-3.128
			c1.277-1.73,2.885-3.493,4.82-5.289c1.936-1.794,3.475-2.779,4.617-2.951s2.238,0.148,3.287,0.958
			c1.049,0.811,1.631,1.604,1.748,2.381c0.117,0.778-3.096,8.745-9.639,23.9c-0.078,0.22-0.311,0.714-0.695,1.48
			c-0.385,0.767-0.68,1.397-0.883,1.896c-0.203,0.496-0.438,1.095-0.703,1.791c-0.523,1.461-0.715,2.648-0.578,3.559
			c0.174,1.15,1.094,1.601,2.762,1.35s3.32-1.045,4.955-2.38c1.633-1.335,3.006-2.741,4.117-4.223
			c2.895-3.927,4.578-5.926,5.049-5.997C291.957,66.133,292.658,67.583,293.115,70.625z M295.263,25.04
			c0.291,1.926-0.379,4.006-2.008,6.239c-1.631,2.232-3.486,3.505-5.572,3.819c-2.084,0.314-3.277-0.543-3.584-2.571
			c-0.305-2.028,0.318-4.1,1.873-6.218c1.553-2.117,3.436-3.343,5.646-3.676c0.98-0.147,1.797-0.01,2.453,0.409
			C294.728,23.46,295.126,24.126,295.263,25.04z"/>
		<path fill="#87CEFA" stroke="#87CEFA" d="M312.98,24.136l0.963-0.249c0.545-0.082,1.047,0.292,1.506,1.122
			c0.457,0.83,0.709,1.396,0.756,1.701c0.045,0.304-0.23,0.934-0.828,1.887l-12.189,24.337c4.676-5.889,9.648-10.422,14.918-13.6
			c2.043-1.206,3.941-1.941,5.701-2.206c1.758-0.265,3.252,0.055,4.482,0.958c1.229,0.904,1.965,2.15,2.203,3.738
			c0.24,1.59,0.063,3.621-0.529,6.095c-0.592,2.474-1.496,5.15-2.711,8.03c-1.217,2.878-2.775,5.827-4.676,8.843
			c-1.902,3.017-3.947,5.796-6.143,8.338s-4.676,4.713-7.445,6.513c-2.77,1.799-5.279,2.869-7.525,3.207
			c-4.533,0.682-7.092-0.921-7.676-4.808c-3.332,6.689-7.148,14.59-11.449,23.706s-6.615,13.939-6.943,14.474
			c-0.326,0.533-0.627,0.819-0.898,0.86c-0.273,0.041-0.711-0.048-1.32-0.268c-0.607-0.219-1.271-0.639-1.996-1.254
			c-0.723-0.617-1.195-1.601-1.418-2.951c-0.221-1.349,0-2.781,0.66-4.298c3.75-8.342,11.033-24.068,21.85-47.176
			c10.814-23.109,16.748-35.108,17.803-35.991c0.592-0.504,1.213-0.805,1.865-0.903L312.98,24.136z M321.277,46.737
			c-0.107-0.71-0.523-1.01-1.248-0.9c-1.959,0.294-5.678,3.724-11.16,10.285c-5.484,6.563-9.744,12.441-12.779,17.634
			c1.104,0.94,2.582,1.27,4.43,0.992c1.85-0.278,4.104-1.567,6.76-3.87c2.656-2.299,5.045-4.915,7.162-7.843
			s3.854-5.928,5.209-9.002C321.003,50.96,321.546,48.529,321.277,46.737z"/>
	</g>
</g>
<g id="Layer_2">
	<polyline fill="#87CEFA" stroke="#87CEFA" stroke-width="2" stroke-miterlimit="10" points="18.769,135.031 2.072,162.717 
		331.373,87.52 	"/>
</g>
</svg>
